<svg id="Слой_2" data-name="Слой 2" xmlns="http://www.w3.org/2000/svg" viewBox="0 0 800 800"><path d="M846.48,287.43Q793,197.16,696.22,148.57T473,100H200.1C144.82,100,100,147.38,100,205.82V794.18C100,852.62,144.82,900,200.1,900H473q126.48,0,223.25-48.57T846.48,712.57Q900,622.3,900,500T846.48,287.43ZM490,688.41a45.45,45.45,0,0,1-27.75,41.86l-234.09,99A45.46,45.46,0,0,1,165,787.39V542a45.46,45.46,0,0,1,63.16-41.86l234.09,99A45.45,45.45,0,0,1,490,641ZM490,458a45.46,45.46,0,0,1-63.16,41.86l-234.09-99A45.45,45.45,0,0,1,165,359.05V311.59a45.45,45.45,0,0,1,27.75-41.86l234.09-99A45.46,45.46,0,0,1,490,212.61Z" transform="translate(-100 -100)"/></svg>